<svg xmlns="http://www.w3.org/2000/svg" xmlns:xlink="http://www.w3.org/1999/xlink" width="1550" zoomAndPan="magnify" viewBox="0 0 1162.5 307.499996" height="410" preserveAspectRatio="xMidYMid meet" version="1.0"><defs><g/><clipPath id="64cd4a0b13"><path d="M 643 88 L 644 88 L 644 89 L 643 89 Z M 643 88 " clip-rule="nonzero"/></clipPath><clipPath id="b79cc53e81"><path d="M 515.679688 0.00390625 L 722.144531 43.953125 L 701.402344 141.386719 L 494.941406 97.4375 Z M 515.679688 0.00390625 " clip-rule="nonzero"/></clipPath><clipPath id="1023e7d370"><path d="M 515.679688 0.00390625 L 722.144531 43.953125 L 701.402344 141.386719 L 494.941406 97.4375 Z M 515.679688 0.00390625 " clip-rule="nonzero"/></clipPath><clipPath id="a35dd63b18"><path d="M 585 89 L 586 89 L 586 90 L 585 90 Z M 585 89 " clip-rule="nonzero"/></clipPath><clipPath id="566e12ce47"><path d="M 515.679688 0.00390625 L 722.144531 43.953125 L 701.402344 141.386719 L 494.941406 97.4375 Z M 515.679688 0.00390625 " clip-rule="nonzero"/></clipPath><clipPath id="efb7c9eb2b"><path d="M 515.679688 0.00390625 L 722.144531 43.953125 L 701.402344 141.386719 L 494.941406 97.4375 Z M 515.679688 0.00390625 " clip-rule="nonzero"/></clipPath><clipPath id="3eeaabd20e"><path d="M 552 92 L 553 92 L 553 93 L 552 93 Z M 552 92 " clip-rule="nonzero"/></clipPath><clipPath id="3813b91972"><path d="M 515.679688 0.00390625 L 722.144531 43.953125 L 701.402344 141.386719 L 494.941406 97.4375 Z M 515.679688 0.00390625 " clip-rule="nonzero"/></clipPath><clipPath id="45c7db35a9"><path d="M 515.679688 0.00390625 L 722.144531 43.953125 L 701.402344 141.386719 L 494.941406 97.4375 Z M 515.679688 0.00390625 " clip-rule="nonzero"/></clipPath><clipPath id="47b189c34a"><path d="M 497 51 L 644 51 L 644 104 L 497 104 Z M 497 51 " clip-rule="nonzero"/></clipPath><clipPath id="545e2d28b7"><path d="M 515.679688 0.00390625 L 722.144531 43.953125 L 701.402344 141.386719 L 494.941406 97.4375 Z M 515.679688 0.00390625 " clip-rule="nonzero"/></clipPath><clipPath id="2f99f246a9"><path d="M 515.679688 0.00390625 L 722.144531 43.953125 L 701.402344 141.386719 L 494.941406 97.4375 Z M 515.679688 0.00390625 " clip-rule="nonzero"/></clipPath><clipPath id="5572adb240"><path d="M 505.941406 45.757812 L 644.945312 75.347656 L 633.929688 127.097656 L 494.925781 97.503906 Z M 505.941406 45.757812 " clip-rule="nonzero"/></clipPath><clipPath id="77bc27c50e"><path d="M 505.941406 45.757812 L 644.945312 75.347656 L 633.953125 126.984375 L 494.949219 97.394531 Z M 505.941406 45.757812 " clip-rule="nonzero"/></clipPath><clipPath id="f1a83d2488"><path d="M 692 110 L 693 110 L 693 111 L 692 111 Z M 692 110 " clip-rule="nonzero"/></clipPath><clipPath id="c5d2911928"><path d="M 515.679688 0.00390625 L 722.144531 43.953125 L 701.402344 141.386719 L 494.941406 97.4375 Z M 515.679688 0.00390625 " clip-rule="nonzero"/></clipPath><clipPath id="c417e1e045"><path d="M 515.679688 0.00390625 L 722.144531 43.953125 L 701.402344 141.386719 L 494.941406 97.4375 Z M 515.679688 0.00390625 " clip-rule="nonzero"/></clipPath><clipPath id="994aed141a"><path d="M 638 31 L 721 31 L 721 108 L 638 108 Z M 638 31 " clip-rule="nonzero"/></clipPath><clipPath id="0e39a4c4cb"><path d="M 515.679688 0.00390625 L 722.144531 43.953125 L 701.402344 141.386719 L 494.941406 97.4375 Z M 515.679688 0.00390625 " clip-rule="nonzero"/></clipPath><clipPath id="29837e9394"><path d="M 515.679688 0.00390625 L 722.144531 43.953125 L 701.402344 141.386719 L 494.941406 97.4375 Z M 515.679688 0.00390625 " clip-rule="nonzero"/></clipPath></defs><g fill="#ecdac9" fill-opacity="1"><g transform="translate(18.966848, 252.528237)"><g><path d="M 120.515625 -151.890625 C 119.316406 -150.179688 118.140625 -148.921875 116.984375 -148.109375 C 115.835938 -147.296875 114.410156 -146.890625 112.703125 -146.890625 C 110.992188 -146.890625 109.242188 -147.570312 107.453125 -148.9375 C 105.660156 -150.3125 103.523438 -151.828125 101.046875 -153.484375 C 98.566406 -155.148438 95.617188 -156.664062 92.203125 -158.03125 C 88.796875 -159.40625 84.703125 -160.09375 79.921875 -160.09375 C 75.304688 -160.09375 71.207031 -159.40625 67.625 -158.03125 C 64.039062 -156.664062 61.03125 -154.785156 58.59375 -152.390625 C 56.15625 -150.003906 54.316406 -147.1875 53.078125 -143.9375 C 51.847656 -140.695312 51.234375 -137.203125 51.234375 -133.453125 C 51.234375 -129.523438 52.234375 -126.257812 54.234375 -123.65625 C 56.242188 -121.050781 58.867188 -118.765625 62.109375 -116.796875 C 65.359375 -114.835938 69.070312 -113.085938 73.25 -111.546875 C 77.4375 -110.015625 81.6875 -108.394531 86 -106.6875 C 90.3125 -104.976562 94.554688 -103.015625 98.734375 -100.796875 C 102.921875 -98.578125 106.632812 -95.84375 109.875 -92.59375 C 113.125 -89.351562 115.75 -85.445312 117.75 -80.875 C 119.757812 -76.3125 120.765625 -70.785156 120.765625 -64.296875 C 120.765625 -55.242188 119.1875 -46.703125 116.03125 -38.671875 C 112.875 -30.648438 108.390625 -23.628906 102.578125 -17.609375 C 96.773438 -11.585938 89.691406 -6.804688 81.328125 -3.265625 C 72.960938 0.273438 63.613281 2.046875 53.28125 2.046875 C 47.894531 2.046875 42.597656 1.46875 37.390625 0.3125 C 32.179688 -0.832031 27.269531 -2.472656 22.65625 -4.609375 C 18.050781 -6.742188 13.785156 -9.304688 9.859375 -12.296875 C 5.929688 -15.285156 2.515625 -18.613281 -0.390625 -22.28125 L 11.390625 -38.171875 C 12.335938 -39.359375 13.535156 -40.335938 14.984375 -41.109375 C 16.429688 -41.878906 17.882812 -42.265625 19.34375 -42.265625 C 20.707031 -42.265625 22.050781 -41.835938 23.375 -40.984375 C 24.695312 -40.128906 26.144531 -39.082031 27.71875 -37.84375 C 29.300781 -36.601562 31.007812 -35.234375 32.84375 -33.734375 C 34.6875 -32.242188 36.78125 -30.878906 39.125 -29.640625 C 41.46875 -28.410156 44.15625 -27.367188 47.1875 -26.515625 C 50.21875 -25.660156 53.65625 -25.234375 57.5 -25.234375 C 67.238281 -25.234375 74.835938 -27.960938 80.296875 -33.421875 C 85.765625 -38.890625 88.5 -46.445312 88.5 -56.09375 C 88.5 -60.363281 87.515625 -63.863281 85.546875 -66.59375 C 83.585938 -69.320312 80.984375 -71.625 77.734375 -73.5 C 74.492188 -75.382812 70.800781 -77.03125 66.65625 -78.4375 C 62.519531 -79.851562 58.316406 -81.347656 54.046875 -82.921875 C 49.773438 -84.503906 45.566406 -86.335938 41.421875 -88.421875 C 37.285156 -90.515625 33.59375 -93.207031 30.34375 -96.5 C 27.101562 -99.789062 24.5 -103.828125 22.53125 -108.609375 C 20.570312 -113.390625 19.59375 -119.28125 19.59375 -126.28125 C 19.59375 -134.21875 21.066406 -141.859375 24.015625 -149.203125 C 26.960938 -156.546875 31.1875 -163.015625 36.6875 -168.609375 C 42.195312 -174.203125 48.859375 -178.679688 56.671875 -182.046875 C 64.484375 -185.421875 73.300781 -187.109375 83.125 -187.109375 C 88.15625 -187.109375 93 -186.59375 97.65625 -185.5625 C 102.3125 -184.539062 106.644531 -183.09375 110.65625 -181.21875 C 114.664062 -179.34375 118.359375 -177.101562 121.734375 -174.5 C 125.109375 -171.894531 128.03125 -169.007812 130.5 -165.84375 Z M 120.515625 -151.890625 "/></g></g></g><g fill="#ecdac9" fill-opacity="1"><g transform="translate(151.006611, 252.528237)"><g><path d="M 59.421875 -190.3125 L 46.109375 -81.328125 L 49.3125 -81.328125 C 51.269531 -81.328125 52.867188 -81.625 54.109375 -82.21875 C 55.347656 -82.820312 56.648438 -83.929688 58.015625 -85.546875 L 92.984375 -125.890625 C 94.429688 -127.679688 95.960938 -129.046875 97.578125 -129.984375 C 99.203125 -130.929688 101.253906 -131.40625 103.734375 -131.40625 L 131.90625 -131.40625 L 88.625 -82.609375 C 85.550781 -78.847656 82.222656 -75.898438 78.640625 -73.765625 C 80.253906 -72.566406 81.640625 -71.113281 82.796875 -69.40625 C 83.953125 -67.707031 85 -65.832031 85.9375 -63.78125 L 118.34375 0 L 90.9375 0 C 88.625 0 86.695312 -0.40625 85.15625 -1.21875 C 83.625 -2.03125 82.390625 -3.503906 81.453125 -5.640625 L 55.96875 -55.453125 C 55.03125 -57.421875 54.023438 -58.703125 52.953125 -59.296875 C 51.890625 -59.890625 50.160156 -60.1875 47.765625 -60.1875 L 43.421875 -60.1875 L 36.109375 0 L 4.859375 0 L 28.296875 -190.3125 Z M 59.421875 -190.3125 "/></g></g></g><g fill="#ecdac9" fill-opacity="1"><g transform="translate(279.204263, 252.528237)"><g><path d="M 132.171875 -131.40625 L 45.34375 36.375 C 44.144531 38.59375 42.734375 40.234375 41.109375 41.296875 C 39.484375 42.367188 37.476562 42.90625 35.09375 42.90625 L 11.65625 42.90625 L 40.859375 -10.125 L 7.6875 -131.40625 L 34.1875 -131.40625 C 36.5 -131.40625 38.226562 -130.828125 39.375 -129.671875 C 40.53125 -128.515625 41.320312 -127.128906 41.75 -125.515625 L 57.890625 -57.375 C 58.742188 -53.019531 59.382812 -48.664062 59.8125 -44.3125 C 60.75 -46.53125 61.707031 -48.726562 62.6875 -50.90625 C 63.664062 -53.082031 64.671875 -55.28125 65.703125 -57.5 L 98.109375 -125.640625 C 98.953125 -127.347656 100.1875 -128.734375 101.8125 -129.796875 C 103.4375 -130.867188 105.101562 -131.40625 106.8125 -131.40625 Z M 132.171875 -131.40625 "/></g></g></g><g fill="#ecdac9" fill-opacity="1"><g transform="translate(405.096697, 252.528237)"><g><path d="M 43.28125 0 L 9.859375 0 L 32.40625 -185.1875 L 65.828125 -185.1875 Z M 43.28125 0 "/></g></g></g><g fill="#ecdac9" fill-opacity="1"><g transform="translate(477.327928, 252.528237)"><g><path d="M 46.75 -104.25 C 53.40625 -114.070312 60.785156 -121.394531 68.890625 -126.21875 C 77.003906 -131.039062 85.375 -133.453125 94 -133.453125 C 99.46875 -133.453125 104.378906 -132.34375 108.734375 -130.125 C 113.085938 -127.90625 116.671875 -124.679688 119.484375 -120.453125 C 122.304688 -116.222656 124.289062 -111.015625 125.4375 -104.828125 C 126.59375 -98.640625 126.660156 -91.570312 125.640625 -83.625 L 115.78125 0 L 84.140625 0 L 94 -83.625 C 95.113281 -92.164062 94.6875 -98.289062 92.71875 -102 C 90.757812 -105.71875 87.175781 -107.578125 81.96875 -107.578125 C 78.46875 -107.578125 74.878906 -106.570312 71.203125 -104.5625 C 67.535156 -102.5625 63.992188 -99.703125 60.578125 -95.984375 C 57.160156 -92.273438 54.019531 -87.835938 51.15625 -82.671875 C 48.300781 -77.503906 45.976562 -71.71875 44.1875 -65.3125 L 36.890625 0 L 5.25 0 L 21 -131.53125 L 37.015625 -131.53125 C 40.335938 -131.53125 42.914062 -130.71875 44.75 -129.09375 C 46.59375 -127.46875 47.515625 -124.863281 47.515625 -121.28125 Z M 46.75 -104.25 "/></g></g></g><g fill="#ecdac9" fill-opacity="1"><g transform="translate(615.899231, 252.528237)"><g><path d="M 92.71875 -106.6875 C 91.78125 -105.320312 90.882812 -104.359375 90.03125 -103.796875 C 89.175781 -103.242188 88.066406 -102.96875 86.703125 -102.96875 C 85.160156 -102.96875 83.617188 -103.394531 82.078125 -104.25 C 80.546875 -105.101562 78.773438 -106.0625 76.765625 -107.125 C 74.765625 -108.195312 72.460938 -109.160156 69.859375 -110.015625 C 67.253906 -110.867188 64.160156 -111.296875 60.578125 -111.296875 C 53.828125 -111.296875 48.660156 -109.78125 45.078125 -106.75 C 41.492188 -103.71875 39.703125 -99.9375 39.703125 -95.40625 C 39.703125 -91.90625 40.960938 -89.085938 43.484375 -86.953125 C 46.003906 -84.828125 49.179688 -82.953125 53.015625 -81.328125 C 56.859375 -79.703125 60.976562 -78.054688 65.375 -76.390625 C 69.769531 -74.722656 73.890625 -72.628906 77.734375 -70.109375 C 81.578125 -67.597656 84.757812 -64.359375 87.28125 -60.390625 C 89.800781 -56.421875 91.0625 -51.316406 91.0625 -45.078125 C 91.0625 -38.765625 89.800781 -32.742188 87.28125 -27.015625 C 84.757812 -21.296875 81.148438 -16.28125 76.453125 -11.96875 C 71.765625 -7.65625 66.109375 -4.238281 59.484375 -1.71875 C 52.867188 0.789062 45.421875 2.046875 37.140625 2.046875 C 33.046875 2.046875 29.03125 1.640625 25.09375 0.828125 C 21.164062 0.015625 17.515625 -1.113281 14.140625 -2.5625 C 10.773438 -4.007812 7.679688 -5.710938 4.859375 -7.671875 C 2.046875 -9.640625 -0.34375 -11.78125 -2.3125 -14.09375 L 5.5 -26.125 C 6.445312 -27.570312 7.5625 -28.679688 8.84375 -29.453125 C 10.125 -30.222656 11.703125 -30.609375 13.578125 -30.609375 C 15.367188 -30.609375 16.988281 -30.050781 18.4375 -28.9375 C 19.894531 -27.832031 21.582031 -26.617188 23.5 -25.296875 C 25.414062 -23.972656 27.757812 -22.753906 30.53125 -21.640625 C 33.3125 -20.535156 36.878906 -19.984375 41.234375 -19.984375 C 44.734375 -19.984375 47.828125 -20.453125 50.515625 -21.390625 C 53.210938 -22.328125 55.5 -23.601562 57.375 -25.21875 C 59.25 -26.84375 60.65625 -28.722656 61.59375 -30.859375 C 62.539062 -32.992188 63.015625 -35.257812 63.015625 -37.65625 C 63.015625 -40.550781 62.285156 -42.957031 60.828125 -44.875 C 59.378906 -46.800781 57.4375 -48.46875 55 -49.875 C 52.570312 -51.289062 49.820312 -52.53125 46.75 -53.59375 C 43.675781 -54.664062 40.535156 -55.796875 37.328125 -56.984375 C 34.128906 -58.179688 31.015625 -59.546875 27.984375 -61.078125 C 24.953125 -62.617188 22.21875 -64.5625 19.78125 -66.90625 C 17.351562 -69.257812 15.410156 -72.125 13.953125 -75.5 C 12.503906 -78.875 11.78125 -82.992188 11.78125 -87.859375 C 11.78125 -93.660156 12.890625 -99.316406 15.109375 -104.828125 C 17.328125 -110.335938 20.570312 -115.203125 24.84375 -119.421875 C 29.113281 -123.648438 34.382812 -127.046875 40.65625 -129.609375 C 46.9375 -132.171875 54.132812 -133.453125 62.25 -133.453125 C 70.613281 -133.453125 78.039062 -132.019531 84.53125 -129.15625 C 91.019531 -126.300781 96.441406 -122.648438 100.796875 -118.203125 Z M 92.71875 -106.6875 "/></g></g></g><g fill="#ecdac9" fill-opacity="1"><g transform="translate(719.763691, 252.528237)"><g><path d="M 53.28125 -131.40625 L 37.53125 0 L 6.40625 0 L 22.15625 -131.40625 Z M 61.34375 -169.6875 C 61.34375 -166.957031 60.765625 -164.394531 59.609375 -162 C 58.460938 -159.613281 56.945312 -157.523438 55.0625 -155.734375 C 53.1875 -153.941406 51.050781 -152.507812 48.65625 -151.4375 C 46.269531 -150.375 43.796875 -149.84375 41.234375 -149.84375 C 38.765625 -149.84375 36.375 -150.375 34.0625 -151.4375 C 31.757812 -152.507812 29.710938 -153.941406 27.921875 -155.734375 C 26.128906 -157.523438 24.695312 -159.613281 23.625 -162 C 22.5625 -164.394531 22.03125 -166.957031 22.03125 -169.6875 C 22.03125 -172.425781 22.582031 -175.03125 23.6875 -177.5 C 24.800781 -179.976562 26.253906 -182.132812 28.046875 -183.96875 C 29.835938 -185.8125 31.90625 -187.265625 34.25 -188.328125 C 36.601562 -189.390625 39.019531 -189.921875 41.5 -189.921875 C 44.0625 -189.921875 46.535156 -189.390625 48.921875 -188.328125 C 51.316406 -187.265625 53.429688 -185.832031 55.265625 -184.03125 C 57.097656 -182.238281 58.566406 -180.101562 59.671875 -177.625 C 60.785156 -175.15625 61.34375 -172.507812 61.34375 -169.6875 Z M 61.34375 -169.6875 "/></g></g></g><g fill="#ecdac9" fill-opacity="1"><g transform="translate(782.517835, 252.528237)"><g><path d="M 47.125 24.203125 C 51.90625 24.203125 56.257812 23.601562 60.1875 22.40625 C 64.113281 21.21875 67.484375 19.554688 70.296875 17.421875 C 73.117188 15.285156 75.296875 12.765625 76.828125 9.859375 C 78.367188 6.953125 79.140625 3.835938 79.140625 0.515625 C 79.140625 -0.679688 79.078125 -1.851562 78.953125 -3 C 78.828125 -4.15625 78.675781 -5.25 78.5 -6.28125 C 68.425781 -7.988281 59.800781 -8.710938 52.625 -8.453125 C 45.457031 -8.191406 39.609375 -7.289062 35.078125 -5.75 C 30.554688 -4.21875 27.226562 -2.175781 25.09375 0.375 C 22.96875 2.9375 21.90625 5.671875 21.90625 8.578125 C 21.90625 13.703125 23.972656 17.585938 28.109375 20.234375 C 32.253906 22.878906 38.59375 24.203125 47.125 24.203125 Z M 58.53125 -61.609375 C 62.375 -61.609375 65.742188 -62.503906 68.640625 -64.296875 C 71.546875 -66.085938 74 -68.429688 76 -71.328125 C 78.007812 -74.234375 79.523438 -77.5 80.546875 -81.125 C 81.578125 -84.757812 82.132812 -88.453125 82.21875 -92.203125 C 82.21875 -98.609375 80.703125 -103.519531 77.671875 -106.9375 C 74.640625 -110.351562 70.265625 -112.0625 64.546875 -112.0625 C 60.703125 -112.0625 57.328125 -111.226562 54.421875 -109.5625 C 51.523438 -107.894531 49.09375 -105.675781 47.125 -102.90625 C 45.164062 -100.132812 43.691406 -96.953125 42.703125 -93.359375 C 41.722656 -89.773438 41.234375 -86.0625 41.234375 -82.21875 C 41.234375 -75.644531 42.726562 -70.566406 45.71875 -66.984375 C 48.707031 -63.398438 52.976562 -61.609375 58.53125 -61.609375 Z M 130.890625 -126.65625 L 129.484375 -116.421875 C 128.878906 -112.316406 126.785156 -109.582031 123.203125 -108.21875 L 109.75 -104.765625 C 110.175781 -103.054688 110.492188 -101.238281 110.703125 -99.3125 C 110.921875 -97.394531 111.03125 -95.410156 111.03125 -93.359375 C 111.03125 -89.429688 110.601562 -85.910156 109.75 -82.796875 C 108.894531 -79.679688 107.847656 -76.800781 106.609375 -74.15625 C 105.378906 -71.507812 104.035156 -69.007812 102.578125 -66.65625 C 101.128906 -64.3125 99.785156 -61.921875 98.546875 -59.484375 C 97.304688 -57.054688 96.257812 -54.492188 95.40625 -51.796875 C 94.550781 -49.109375 94.125 -46.144531 94.125 -42.90625 C 94.125 -39.40625 94.847656 -36.179688 96.296875 -33.234375 C 97.753906 -30.285156 99.335938 -27.273438 101.046875 -24.203125 C 102.753906 -21.128906 104.332031 -17.84375 105.78125 -14.34375 C 107.238281 -10.84375 107.96875 -6.785156 107.96875 -2.171875 C 107.875 4.316406 106.375 10.484375 103.46875 16.328125 C 100.570312 22.179688 96.410156 27.304688 90.984375 31.703125 C 85.566406 36.097656 78.929688 39.578125 71.078125 42.140625 C 63.222656 44.703125 54.34375 45.984375 44.4375 45.984375 C 36.414062 45.984375 29.160156 45.148438 22.671875 43.484375 C 16.179688 41.816406 10.671875 39.488281 6.140625 36.5 C 1.617188 33.507812 -1.875 29.984375 -4.34375 25.921875 C -6.820312 21.867188 -8.0625 17.410156 -8.0625 12.546875 C -8.0625 6.578125 -6.78125 1.375 -4.21875 -3.0625 C -1.664062 -7.507812 1.742188 -11.25 6.015625 -14.28125 C 10.285156 -17.3125 15.195312 -19.722656 20.75 -21.515625 C 26.300781 -23.304688 32.0625 -24.585938 38.03125 -25.359375 C 44.007812 -26.128906 49.988281 -26.425781 55.96875 -26.25 C 61.945312 -26.082031 67.492188 -25.570312 72.609375 -24.71875 C 71.847656 -27.28125 71.46875 -30.054688 71.46875 -33.046875 C 71.46875 -37.992188 72.832031 -43.457031 75.5625 -49.4375 C 72.3125 -47.21875 68.613281 -45.507812 64.46875 -44.3125 C 60.332031 -43.113281 55.363281 -42.515625 49.5625 -42.515625 C 44.613281 -42.515625 39.894531 -43.328125 35.40625 -44.953125 C 30.925781 -46.578125 26.976562 -49.050781 23.5625 -52.375 C 20.144531 -55.707031 17.429688 -59.867188 15.421875 -64.859375 C 13.421875 -69.859375 12.421875 -75.6875 12.421875 -82.34375 C 12.421875 -88.75 13.613281 -95.003906 16 -101.109375 C 18.394531 -107.210938 21.941406 -112.675781 26.640625 -117.5 C 31.335938 -122.320312 37.144531 -126.1875 44.0625 -129.09375 C 50.976562 -132 59.003906 -133.453125 68.140625 -133.453125 C 73.003906 -133.453125 77.632812 -132.894531 82.03125 -131.78125 C 86.425781 -130.675781 90.457031 -128.96875 94.125 -126.65625 Z M 130.890625 -126.65625 "/></g></g></g><g fill="#ecdac9" fill-opacity="1"><g transform="translate(911.227765, 252.528237)"><g><path d="M 49.953125 -109.109375 C 56.347656 -117.304688 63.28125 -123.410156 70.75 -127.421875 C 78.226562 -131.441406 85.851562 -133.453125 93.625 -133.453125 C 99.164062 -133.453125 104.132812 -132.34375 108.53125 -130.125 C 112.9375 -127.90625 116.546875 -124.679688 119.359375 -120.453125 C 122.179688 -116.222656 124.164062 -111.015625 125.3125 -104.828125 C 126.46875 -98.640625 126.535156 -91.570312 125.515625 -83.625 L 115.515625 0 L 84.015625 0 L 93.875 -83.625 C 94.988281 -92.164062 94.539062 -98.3125 92.53125 -102.0625 C 90.519531 -105.820312 86.867188 -107.703125 81.578125 -107.703125 C 78.335938 -107.703125 74.96875 -106.785156 71.46875 -104.953125 C 67.96875 -103.117188 64.59375 -100.515625 61.34375 -97.140625 C 58.101562 -93.765625 55.070312 -89.6875 52.25 -84.90625 C 49.4375 -80.125 47.046875 -74.789062 45.078125 -68.90625 L 36.75 0 L 5.125 0 L 28.171875 -190.3125 L 59.8125 -190.3125 Z M 49.953125 -109.109375 "/></g></g></g><g fill="#ecdac9" fill-opacity="1"><g transform="translate(1049.799068, 252.528237)"><g><path d="M 16.265625 -26.765625 C 16.265625 -27.359375 16.265625 -28.0625 16.265625 -28.875 C 16.265625 -29.6875 16.328125 -30.878906 16.453125 -32.453125 C 16.585938 -34.035156 16.800781 -36.128906 17.09375 -38.734375 C 17.394531 -41.335938 17.800781 -44.691406 18.3125 -48.796875 L 25.609375 -107.703125 L 13.1875 -107.703125 C 11.65625 -107.703125 10.394531 -108.253906 9.40625 -109.359375 C 8.425781 -110.472656 8.109375 -112.140625 8.453125 -114.359375 L 9.859375 -126.921875 L 29.84375 -130.375 L 40.34375 -166.234375 C 40.9375 -167.941406 41.832031 -169.265625 43.03125 -170.203125 C 44.226562 -171.140625 45.722656 -171.609375 47.515625 -171.609375 L 64.421875 -171.609375 L 59.296875 -130.25 L 91.0625 -130.25 L 88.375 -107.703125 L 56.484375 -107.703125 L 49.4375 -50.453125 C 49.007812 -46.953125 48.664062 -44.175781 48.40625 -42.125 C 48.15625 -40.082031 47.960938 -38.484375 47.828125 -37.328125 C 47.703125 -36.179688 47.640625 -35.367188 47.640625 -34.890625 C 47.640625 -34.421875 47.640625 -34.101562 47.640625 -33.9375 C 47.640625 -30.695312 48.425781 -28.132812 50 -26.25 C 51.582031 -24.375 53.828125 -23.4375 56.734375 -23.4375 C 58.523438 -23.4375 60.0625 -23.671875 61.34375 -24.140625 C 62.625 -24.609375 63.734375 -25.097656 64.671875 -25.609375 C 65.609375 -26.117188 66.460938 -26.609375 67.234375 -27.078125 C 68.003906 -27.554688 68.734375 -27.796875 69.421875 -27.796875 C 70.359375 -27.796875 71.082031 -27.554688 71.59375 -27.078125 C 72.101562 -26.609375 72.570312 -25.90625 73 -24.96875 L 79.78125 -9.609375 C 75.09375 -5.765625 69.90625 -2.859375 64.21875 -0.890625 C 58.539062 1.066406 52.757812 2.046875 46.875 2.046875 C 37.570312 2.046875 30.207031 -0.46875 24.78125 -5.5 C 19.363281 -10.539062 16.523438 -17.628906 16.265625 -26.765625 Z M 16.265625 -26.765625 "/></g></g></g><g clip-path="url(#64cd4a0b13)"><g clip-path="url(#b79cc53e81)"><g clip-path="url(#1023e7d370)"><path fill="#ecdac9" d="M 643.382812 88.386719 L 643.382812 88.363281 L 643.378906 88.367188 Z M 643.382812 88.386719 " fill-opacity="1" fill-rule="nonzero"/></g></g></g><g clip-path="url(#a35dd63b18)"><g clip-path="url(#566e12ce47)"><g clip-path="url(#efb7c9eb2b)"><path fill="#ecdac9" d="M 585.101562 89.617188 C 585.101562 89.601562 585.09375 89.582031 585.089844 89.566406 L 585.089844 89.5625 C 585.089844 89.582031 585.097656 89.601562 585.101562 89.617188 " fill-opacity="1" fill-rule="nonzero"/></g></g></g><g clip-path="url(#3eeaabd20e)"><g clip-path="url(#3813b91972)"><g clip-path="url(#45c7db35a9)"><path fill="#ecdac9" d="M 552.753906 92.804688 C 552.753906 92.808594 552.753906 92.8125 552.757812 92.816406 L 552.753906 92.804688 " fill-opacity="1" fill-rule="nonzero"/></g></g></g><g clip-path="url(#47b189c34a)"><g clip-path="url(#545e2d28b7)"><g clip-path="url(#2f99f246a9)"><g clip-path="url(#5572adb240)"><g clip-path="url(#77bc27c50e)"><path fill="#ecdac9" d="M 497.769531 88.464844 C 498.007812 89.796875 498.484375 91.097656 499.152344 92.257812 C 499.824219 93.421875 500.671875 94.433594 501.585938 95.308594 C 503.433594 97.050781 505.527344 98.265625 507.636719 99.21875 C 509.757812 100.167969 511.917969 100.859375 514.082031 101.421875 C 516.246094 101.980469 518.425781 102.382812 520.597656 102.707031 C 524.945312 103.347656 529.296875 103.632812 533.628906 103.695312 C 535.789062 103.722656 537.953125 103.707031 540.105469 103.628906 C 542.261719 103.558594 544.414062 103.433594 546.5625 103.273438 C 549.910156 103.023438 553.246094 102.675781 556.570312 102.25 C 558.722656 101.972656 560.867188 101.664062 563.011719 101.332031 C 566.03125 100.867188 569.042969 100.347656 572.042969 99.800781 C 577.066406 98.875 582.0625 97.863281 587.046875 96.804688 C 589.070312 96.375 591.089844 95.9375 593.109375 95.496094 C 594.449219 95.203125 595.789062 94.90625 597.128906 94.609375 C 605.453125 92.757812 613.753906 90.8125 622.03125 88.761719 C 627.558594 87.386719 633.128906 85.984375 638.644531 84.527344 C 639.652344 84.261719 641.308594 83.8125 642.414062 83.515625 C 643.148438 83.316406 643.472656 82.414062 642.996094 81.816406 C 642.96875 81.78125 642.941406 81.75 642.914062 81.722656 C 642.144531 80.992188 641.039062 80.738281 640.03125 81.070312 C 639.441406 81.261719 638.808594 81.46875 638.359375 81.617188 C 632.785156 83.457031 627.171875 85.175781 621.515625 86.746094 C 613.328125 89.023438 605.066406 91.019531 596.734375 92.644531 C 596.148438 92.761719 595.566406 92.871094 594.980469 92.980469 C 594.683594 93.039062 594.386719 93.097656 594.089844 93.148438 C 593.957031 93.171875 593.824219 93.195312 593.691406 93.21875 C 593.492188 93.257812 593.289062 93.296875 593.089844 93.332031 C 592.890625 93.367188 592.695312 93.40625 592.5 93.441406 C 592.347656 93.46875 592.199219 93.496094 592.050781 93.519531 C 591.695312 93.585938 591.335938 93.648438 590.984375 93.710938 C 590.976562 93.707031 590.972656 93.710938 590.96875 93.710938 C 590.457031 93.800781 589.945312 93.886719 589.433594 93.972656 C 588.925781 94.058594 588.414062 94.101562 587.898438 94.1875 C 587.390625 94.269531 586.878906 94.347656 586.363281 94.390625 L 586.351562 94.390625 C 581.449219 95.320312 576.507812 95.828125 571.570312 96.34375 C 568.09375 96.710938 564.609375 96.964844 561.136719 97.269531 L 561.125 97.269531 C 558.949219 97.460938 556.773438 97.652344 554.59375 97.675781 C 554.589844 97.675781 554.589844 97.675781 554.585938 97.675781 L 554.5625 97.675781 C 551.816406 97.917969 549.058594 97.972656 546.316406 98.050781 C 545.265625 98.082031 544.214844 98.125 543.167969 98.136719 C 542.121094 98.15625 541.074219 98.179688 540.027344 98.179688 C 537.933594 98.179688 535.84375 98.175781 533.761719 98.117188 C 529.59375 98 525.449219 97.753906 521.382812 97.214844 C 519.347656 96.945312 517.34375 96.585938 515.378906 96.132812 C 513.421875 95.675781 511.511719 95.105469 509.734375 94.355469 C 507.957031 93.613281 506.300781 92.699219 505.007812 91.546875 C 503.714844 90.398438 502.832031 89.050781 502.492188 87.511719 C 502.136719 85.980469 502.351562 84.226562 502.945312 82.472656 C 503.542969 80.707031 504.507812 78.96875 505.621094 77.300781 C 506.742188 75.625 508.039062 74.023438 509.417969 72.480469 C 510.792969 70.933594 512.269531 69.449219 513.789062 68.003906 C 516.839844 65.113281 520.101562 62.40625 523.445312 59.792969 C 526.796875 57.183594 530.242188 54.671875 533.734375 52.207031 L 533.417969 51.671875 C 529.605469 53.613281 525.859375 55.714844 522.214844 58 C 518.570312 60.28125 515.015625 62.75 511.625 65.484375 C 508.253906 68.238281 505.007812 71.234375 502.242188 74.839844 C 500.871094 76.648438 499.625 78.625 498.71875 80.886719 C 498.265625 82.015625 497.910156 83.21875 497.726562 84.503906 C 497.539062 85.773438 497.535156 87.128906 497.769531 88.464844 " fill-opacity="1" fill-rule="nonzero"/></g></g></g></g></g><g clip-path="url(#f1a83d2488)"><g clip-path="url(#c5d2911928)"><g clip-path="url(#c417e1e045)"><path fill="#ecdac9" d="M 692.078125 110.714844 C 692.078125 110.726562 692.078125 110.730469 692.074219 110.734375 C 692.078125 110.742188 692.078125 110.75 692.078125 110.757812 L 692.144531 110.726562 C 692.121094 110.722656 692.101562 110.71875 692.078125 110.714844 " fill-opacity="1" fill-rule="nonzero"/></g></g></g><g clip-path="url(#994aed141a)"><g clip-path="url(#0e39a4c4cb)"><g clip-path="url(#29837e9394)"><path fill="#ecdac9" d="M 638.644531 70.65625 L 642.929688 74.796875 L 644.089844 75.914062 C 644.089844 75.914062 646.910156 78.644531 646.929688 78.664062 C 647.582031 79.292969 648.136719 80.035156 648.386719 80.921875 C 648.605469 81.699219 648.546875 82.507812 648.535156 83.304688 C 648.519531 84.539062 648.5 85.777344 648.484375 87.011719 L 648.484375 87.019531 L 648.390625 93.984375 C 648.382812 94.921875 649.011719 95.40625 649.804688 95.066406 C 650.597656 94.726562 651.429688 93.703125 651.644531 92.792969 L 653.335938 85.652344 L 653.335938 85.644531 L 654.457031 80.847656 L 662.328125 77.824219 L 662.902344 77.601562 L 662.90625 77.597656 L 685.304688 68.996094 L 685.296875 69.875 L 685.296875 69.878906 L 685.300781 69.890625 L 685.375 69.894531 L 685.5625 75.132812 L 685.566406 75.160156 L 685.742188 106.546875 C 685.75 107.199219 685.984375 107.6875 686.480469 107.644531 L 686.507812 107.640625 C 686.691406 107.625 686.910156 107.582031 687.132812 107.488281 L 690.699219 105.953125 C 691.53125 105.601562 692.347656 104.597656 692.507812 103.703125 L 694.03125 95.253906 C 694.261719 95.261719 694.453125 95.117188 694.675781 95.019531 L 696.246094 94.347656 L 696.664062 94.171875 C 697.496094 93.816406 698.007812 93.027344 697.65625 92.191406 L 697.40625 91.585938 C 697.292969 91.316406 697.105469 91.074219 696.875 90.878906 C 696.386719 90.46875 695.707031 90.273438 695.144531 90.515625 L 694.785156 90.667969 L 696.167969 83.316406 C 696.398438 83.324219 696.679688 83.402344 696.902344 83.304688 L 697.726562 82.953125 L 698.835938 82.480469 C 699.664062 82.125 700.070312 81.125 699.722656 80.289062 L 699.46875 79.679688 C 699.242188 79.136719 698.699219 78.675781 698.121094 78.523438 C 697.808594 78.4375 697.488281 78.441406 697.203125 78.566406 L 696.902344 78.691406 L 698.425781 70.386719 L 698.496094 70.015625 L 699.5625 64.191406 L 699.714844 63.371094 L 710.996094 59.191406 L 711.085938 59.160156 C 713.675781 58.15625 718.1875 54.894531 719.921875 52.160156 C 720.515625 51.222656 720.785156 50.34375 720.539062 49.644531 C 720.308594 48.984375 719.648438 48.539062 718.726562 48.261719 C 715.792969 47.367188 710.230469 48.164062 707.578125 49.1875 C 707.53125 49.207031 703.480469 51.105469 697.566406 53.890625 C 697.375 53.984375 697.179688 54.078125 696.984375 54.167969 C 696.683594 54.308594 696.378906 54.453125 696.070312 54.597656 L 695.617188 54.289062 L 695.316406 54.082031 L 691.148438 51.230469 L 683.199219 45.792969 L 683.5 45.667969 C 684.332031 45.3125 684.757812 44.363281 684.414062 43.53125 L 684.160156 42.921875 C 683.808594 42.082031 682.914062 41.917969 682.085938 42.269531 L 680.15625 43.097656 C 679.933594 43.191406 679.679688 43.1875 679.523438 43.359375 L 673.253906 38.96875 L 673.609375 38.820312 C 674.441406 38.464844 674.898438 37.554688 674.550781 36.714844 L 674.296875 36.109375 C 673.949219 35.273438 672.917969 34.808594 672.089844 35.164062 L 670.09375 36.011719 C 669.871094 36.109375 669.683594 36.257812 669.53125 36.425781 L 662.488281 31.617188 C 661.742188 31.109375 660.425781 30.914062 659.597656 31.273438 L 656.03125 32.792969 C 655.203125 33.148438 655.070312 34.027344 655.707031 34.667969 L 676.835938 55.933594 L 681.09375 60.21875 L 682.085938 61.21875 C 681.652344 61.425781 681.210938 61.628906 680.777344 61.839844 C 668.792969 67.492188 656.402344 73.335938 652.117188 75.359375 L 648.132812 72.960938 L 643.621094 70.242188 L 641.761719 69.121094 C 640.96875 68.640625 639.671875 68.527344 638.878906 68.863281 C 638.082031 69.203125 637.980469 70.011719 638.644531 70.65625 " fill-opacity="1" fill-rule="nonzero"/></g></g></g></svg>