<svg xmlns="http://www.w3.org/2000/svg" version="1.1" xmlns:xlink="http://www.w3.org/1999/xlink" xmlns:svgjs="http://svgjs.dev/svgjs" viewBox="0 0 800 800" opacity="1"><defs><linearGradient gradientTransform="rotate(270)" x1="50%" y1="0%" x2="50%" y2="100%" id="sssquiggly-grad"><stop stop-color="#e38260" stop-opacity="1" offset="0%"></stop><stop stop-color="#c3d1cd" stop-opacity="1" offset="100%"></stop></linearGradient></defs><g stroke-width="2" stroke="url(#sssquiggly-grad)" fill="none" stroke-linecap="round" transform="matrix(1,0,0,1,-5,137.18944549560547)"><path d="M10,10C26.435185185185183,11.25,53.93518518518518,23.083333333333336,88.88888888888889,16C123.84259259259258,8.916666666666666,140.74074074074073,-25.041666666666668,177.77777777777777,-24C214.8148148148148,-22.958333333333332,229.6296296296296,21,266.66666666666663,21C303.7037037037037,21,318.5185185185185,-29.208333333333336,355.55555555555554,-24C392.5925925925926,-18.791666666666664,407.40740740740745,46,444.44444444444446,46C481.48148148148147,46,496.29629629629625,-22.75,533.3333333333333,-24C570.3703703703703,-25.25,585.1851851851851,37.083333333333336,622.2222222222222,40C659.2592592592592,42.916666666666664,674.074074074074,-10.625,711.1111111111111,-10C748.1481481481482,-9.375,781.4814814814815,31.958333333333332,800,43"></path><path d="M10,10C26.435185185185183,11.25,53.93518518518518,23.083333333333336,88.88888888888889,16C123.84259259259258,8.916666666666666,140.74074074074073,-25.041666666666668,177.77777777777777,-24C214.8148148148148,-22.958333333333332,229.6296296296296,21,266.66666666666663,21C303.7037037037037,21,318.5185185185185,-29.208333333333336,355.55555555555554,-24C392.5925925925926,-18.791666666666664,407.40740740740745,46,444.44444444444446,46C481.48148148148147,46,496.29629629629625,-22.75,533.3333333333333,-24C570.3703703703703,-25.25,585.1851851851851,37.083333333333336,622.2222222222222,40C659.2592592592592,42.916666666666664,674.074074074074,-10.625,711.1111111111111,-10C748.1481481481482,-9.375,781.4814814814815,31.958333333333332,800,43" transform="matrix(1,0,0,1,0,504)"></path><path d="M10,10C26.435185185185183,11.25,53.93518518518518,23.083333333333336,88.88888888888889,16C123.84259259259258,8.916666666666666,140.74074074074073,-25.041666666666668,177.77777777777777,-24C214.8148148148148,-22.958333333333332,229.6296296296296,21,266.66666666666663,21C303.7037037037037,21,318.5185185185185,-29.208333333333336,355.55555555555554,-24C392.5925925925926,-18.791666666666664,407.40740740740745,46,444.44444444444446,46C481.48148148148147,46,496.29629629629625,-22.75,533.3333333333333,-24C570.3703703703703,-25.25,585.1851851851851,37.083333333333336,622.2222222222222,40C659.2592592592592,42.916666666666664,674.074074074074,-10.625,711.1111111111111,-10C748.1481481481482,-9.375,781.4814814814815,31.958333333333332,800,43" transform="matrix(1,0,0,1,0,448)"></path><path d="M10,10C26.435185185185183,11.25,53.93518518518518,23.083333333333336,88.88888888888889,16C123.84259259259258,8.916666666666666,140.74074074074073,-25.041666666666668,177.77777777777777,-24C214.8148148148148,-22.958333333333332,229.6296296296296,21,266.66666666666663,21C303.7037037037037,21,318.5185185185185,-29.208333333333336,355.55555555555554,-24C392.5925925925926,-18.791666666666664,407.40740740740745,46,444.44444444444446,46C481.48148148148147,46,496.29629629629625,-22.75,533.3333333333333,-24C570.3703703703703,-25.25,585.1851851851851,37.083333333333336,622.2222222222222,40C659.2592592592592,42.916666666666664,674.074074074074,-10.625,711.1111111111111,-10C748.1481481481482,-9.375,781.4814814814815,31.958333333333332,800,43" transform="matrix(1,0,0,1,0,392)"></path><path d="M10,10C26.435185185185183,11.25,53.93518518518518,23.083333333333336,88.88888888888889,16C123.84259259259258,8.916666666666666,140.74074074074073,-25.041666666666668,177.77777777777777,-24C214.8148148148148,-22.958333333333332,229.6296296296296,21,266.66666666666663,21C303.7037037037037,21,318.5185185185185,-29.208333333333336,355.55555555555554,-24C392.5925925925926,-18.791666666666664,407.40740740740745,46,444.44444444444446,46C481.48148148148147,46,496.29629629629625,-22.75,533.3333333333333,-24C570.3703703703703,-25.25,585.1851851851851,37.083333333333336,622.2222222222222,40C659.2592592592592,42.916666666666664,674.074074074074,-10.625,711.1111111111111,-10C748.1481481481482,-9.375,781.4814814814815,31.958333333333332,800,43" transform="matrix(1,0,0,1,0,336)"></path><path d="M10,10C26.435185185185183,11.25,53.93518518518518,23.083333333333336,88.88888888888889,16C123.84259259259258,8.916666666666666,140.74074074074073,-25.041666666666668,177.77777777777777,-24C214.8148148148148,-22.958333333333332,229.6296296296296,21,266.66666666666663,21C303.7037037037037,21,318.5185185185185,-29.208333333333336,355.55555555555554,-24C392.5925925925926,-18.791666666666664,407.40740740740745,46,444.44444444444446,46C481.48148148148147,46,496.29629629629625,-22.75,533.3333333333333,-24C570.3703703703703,-25.25,585.1851851851851,37.083333333333336,622.2222222222222,40C659.2592592592592,42.916666666666664,674.074074074074,-10.625,711.1111111111111,-10C748.1481481481482,-9.375,781.4814814814815,31.958333333333332,800,43" transform="matrix(1,0,0,1,0,280)"></path><path d="M10,10C26.435185185185183,11.25,53.93518518518518,23.083333333333336,88.88888888888889,16C123.84259259259258,8.916666666666666,140.74074074074073,-25.041666666666668,177.77777777777777,-24C214.8148148148148,-22.958333333333332,229.6296296296296,21,266.66666666666663,21C303.7037037037037,21,318.5185185185185,-29.208333333333336,355.55555555555554,-24C392.5925925925926,-18.791666666666664,407.40740740740745,46,444.44444444444446,46C481.48148148148147,46,496.29629629629625,-22.75,533.3333333333333,-24C570.3703703703703,-25.25,585.1851851851851,37.083333333333336,622.2222222222222,40C659.2592592592592,42.916666666666664,674.074074074074,-10.625,711.1111111111111,-10C748.1481481481482,-9.375,781.4814814814815,31.958333333333332,800,43" transform="matrix(1,0,0,1,0,224)"></path><path d="M10,10C26.435185185185183,11.25,53.93518518518518,23.083333333333336,88.88888888888889,16C123.84259259259258,8.916666666666666,140.74074074074073,-25.041666666666668,177.77777777777777,-24C214.8148148148148,-22.958333333333332,229.6296296296296,21,266.66666666666663,21C303.7037037037037,21,318.5185185185185,-29.208333333333336,355.55555555555554,-24C392.5925925925926,-18.791666666666664,407.40740740740745,46,444.44444444444446,46C481.48148148148147,46,496.29629629629625,-22.75,533.3333333333333,-24C570.3703703703703,-25.25,585.1851851851851,37.083333333333336,622.2222222222222,40C659.2592592592592,42.916666666666664,674.074074074074,-10.625,711.1111111111111,-10C748.1481481481482,-9.375,781.4814814814815,31.958333333333332,800,43" transform="matrix(1,0,0,1,0,168)"></path><path d="M10,10C26.435185185185183,11.25,53.93518518518518,23.083333333333336,88.88888888888889,16C123.84259259259258,8.916666666666666,140.74074074074073,-25.041666666666668,177.77777777777777,-24C214.8148148148148,-22.958333333333332,229.6296296296296,21,266.66666666666663,21C303.7037037037037,21,318.5185185185185,-29.208333333333336,355.55555555555554,-24C392.5925925925926,-18.791666666666664,407.40740740740745,46,444.44444444444446,46C481.48148148148147,46,496.29629629629625,-22.75,533.3333333333333,-24C570.3703703703703,-25.25,585.1851851851851,37.083333333333336,622.2222222222222,40C659.2592592592592,42.916666666666664,674.074074074074,-10.625,711.1111111111111,-10C748.1481481481482,-9.375,781.4814814814815,31.958333333333332,800,43" transform="matrix(1,0,0,1,0,112)"></path><path d="M10,10C26.435185185185183,11.25,53.93518518518518,23.083333333333336,88.88888888888889,16C123.84259259259258,8.916666666666666,140.74074074074073,-25.041666666666668,177.77777777777777,-24C214.8148148148148,-22.958333333333332,229.6296296296296,21,266.66666666666663,21C303.7037037037037,21,318.5185185185185,-29.208333333333336,355.55555555555554,-24C392.5925925925926,-18.791666666666664,407.40740740740745,46,444.44444444444446,46C481.48148148148147,46,496.29629629629625,-22.75,533.3333333333333,-24C570.3703703703703,-25.25,585.1851851851851,37.083333333333336,622.2222222222222,40C659.2592592592592,42.916666666666664,674.074074074074,-10.625,711.1111111111111,-10C748.1481481481482,-9.375,781.4814814814815,31.958333333333332,800,43" transform="matrix(1,0,0,1,0,56)"></path></g></svg>